<svg xmlns="http://www.w3.org/2000/svg" xmlns:xlink="http://www.w3.org/1999/xlink" width="185" height="135" viewBox="0 0 185 135">
    <defs>
        <filter id="pg91xot3va" color-interpolation-filters="auto">
            <feColorMatrix in="SourceGraphic" values="0 0 0 0 1.000000 0 0 0 0 1.000000 0 0 0 0 1.000000 0 0 0 1.000000 0"/>
        </filter>
        <path id="jyu4is3nlb" d="M0 0L184.84 0 184.84 134.345 0 134.345z"/>
    </defs>
    <g fill="none" fill-rule="evenodd">
        <g>
            <g filter="url(#pg91xot3va)" transform="translate(-414.000000, -375.000000) translate(300.000000, 193.000000)">
                <g transform="translate(114.000000, 182.000000)">
                    <mask id="9sc8x89ylc" fill="#fff">
                        <use xlink:href="#jyu4is3nlb"/>
                    </mask>
                    <text font-family="Gotham-Book, Gotham" font-size="26.523" font-weight="400" mask="url(#9sc8x89ylc)">
                        <tspan x="0" y="130.345" fill="#2C3851">be</tspan> <tspan x="33.313" y="130.345" fill="#154A96" font-family="GothamBold, Gotham Bold" font-weight="bold">DIGITAL ID</tspan>
                    </text>
                    <path fill="#154A96" d="M83.204 18.95c-4.168 4.503-4.188 11.668-.046 16.193 2.505 2.738 5.954 4.032 9.353 3.886 3.898-.168 7.681 1.34 10.44 4.1l.002.002c2.751 2.75 4.276 6.522 4.101 10.409-.016.362-.016.725 0 1.088.175 3.887-1.35 7.658-4.1 10.409l-.003.002c-2.759 2.759-6.542 4.267-10.44 4.099-3.399-.145-6.848 1.15-9.353 3.886-4.142 4.527-4.122 11.69.046 16.194 4.641 5.013 12.471 5.128 17.257.34 2.502-2.5 3.663-5.834 3.486-9.108-.208-3.851 1.381-7.583 4.11-10.31 2.757-2.758 6.54-4.267 10.437-4.1 3.67.159 7.398-1.362 9.933-4.565 3.388-4.28 3.388-10.504 0-14.783-2.536-3.202-6.264-4.723-9.933-4.565-3.897.168-7.68-1.341-10.438-4.1-2.728-2.726-4.316-6.46-4.109-10.31.177-3.274-.984-6.607-3.486-9.11-4.786-4.785-12.616-4.671-17.257.343M65.492 8.693c0 4.801 3.892 8.693 8.693 8.693s8.693-3.892 8.693-8.693S78.986 0 74.185 0c-4.8 0-8.693 3.892-8.693 8.693" mask="url(#9sc8x89ylc)"/>
                    <path fill="#154A96" d="M56.398 25.808c-3.354 3.624-3.37 9.391-.037 13.032 2.016 2.203 4.792 3.245 7.527 3.127 3.137-.135 6.182 1.08 8.402 3.3l.002.001c2.213 2.215 3.441 5.25 3.3 8.378-.013.292-.013.584 0 .875.141 3.13-1.087 6.163-3.3 8.378l-.002.001c-2.22 2.221-5.265 3.434-8.402 3.3-2.735-.119-5.51.923-7.527 3.127-3.334 3.642-3.317 9.408.037 13.032 3.734 4.034 10.036 4.126 13.888.275 2.013-2.013 2.948-4.696 2.805-7.332-.167-3.098 1.112-6.1 3.307-8.297 2.22-2.219 5.264-3.434 8.4-3.299 2.954.127 5.954-1.097 7.995-3.674 2.727-3.444 2.726-8.453 0-11.898-2.04-2.576-5.04-3.8-7.995-3.674-3.136.136-6.18-1.079-8.4-3.298-2.195-2.195-3.474-5.199-3.307-8.297.143-2.636-.792-5.319-2.805-7.33-3.852-3.853-10.154-3.76-13.888.273" mask="url(#9sc8x89ylc)"/>
                </g>
            </g>
        </g>
    </g>
</svg>
