<svg xmlns="http://www.w3.org/2000/svg" xmlns:xlink="http://www.w3.org/1999/xlink" width="48" height="48" viewBox="0 0 48 48">
    <defs>
        <path id="ckuomnzu1a" d="M0 0L19.29 0 19.29 30.158 0 30.158z"/>
        <path id="hi8u2bw2wc" d="M0 0L6.589 0 6.589 6.725 0 6.725z"/>
    </defs>
    <g fill="none" fill-rule="evenodd">
        <g>
            <g>
                <g transform="translate(-21.000000, -33.000000) translate(21.000000, 33.000000) translate(20.211781, 10.984598)">
                    <mask id="6vm5wyt5pb" fill="#fff">
                        <use xlink:href="#ckuomnzu1a"/>
                    </mask>
                    <path fill="#1269CB" d="M1.19 1.489C-.39 3.23-.397 6.002 1.172 7.752c.95 1.06 2.257 1.56 3.545 1.504 1.477-.065 2.91.518 3.956 1.586 1.043 1.065 1.621 2.523 1.555 4.027-.006.14-.006.28 0 .42.066 1.504-.512 2.963-1.554 4.027h-.001c-1.046 1.068-2.48 1.652-3.956 1.587-1.288-.057-2.595.444-3.545 1.503-1.57 1.75-1.562 4.522.018 6.264 1.758 1.94 4.726 1.984 6.54.132.948-.968 1.388-2.257 1.32-3.524-.078-1.49.524-2.933 1.558-3.988 1.045-1.067 2.478-1.65 3.955-1.585 1.391.06 2.804-.528 3.764-1.767 1.284-1.655 1.284-4.063 0-5.718-.96-1.239-2.373-1.827-3.764-1.766-1.477.065-2.91-.519-3.955-1.586C9.574 7.814 8.972 6.369 9.05 4.88c.068-1.267-.372-2.556-1.32-3.524C5.915-.495 2.947-.45 1.19 1.49" mask="url(#6vm5wyt5pb)"/>
                </g>
                <g transform="translate(-21.000000, -33.000000) translate(21.000000, 33.000000) translate(14.689333, 5.142857)">
                    <mask id="us5ljfq2gd" fill="#fff">
                        <use xlink:href="#hi8u2bw2wc"/>
                    </mask>
                    <path fill="#1269CB" d="M0 3.363C0 5.22 1.475 6.725 3.294 6.725c1.82 0 3.295-1.505 3.295-3.362C6.589 1.505 5.114 0 3.294 0 1.474 0 0 1.505 0 3.363" mask="url(#us5ljfq2gd)"/>
                </g>
                <path fill="#1269CB" d="M11.243 15.126c-1.27 1.402-1.277 3.633-.014 5.041.764.852 1.816 1.255 2.853 1.21 1.188-.052 2.342.417 3.184 1.276.839.858 1.304 2.031 1.25 3.242-.004.113-.004.225 0 .338.054 1.21-.411 2.384-1.25 3.24v.001c-.842.86-1.996 1.329-3.184 1.277-1.037-.046-2.089.357-2.853 1.21-1.263 1.408-1.257 3.639.014 5.04 1.415 1.561 3.803 1.597 5.263.107.763-.779 1.117-1.817 1.063-2.836-.063-1.199.422-2.36 1.253-3.21.842-.858 1.995-1.328 3.184-1.276 1.12.05 2.256-.424 3.03-1.421 1.033-1.332 1.033-3.27 0-4.603-.774-.996-1.91-1.47-3.03-1.42-1.189.052-2.342-.418-3.184-1.277-.831-.849-1.316-2.01-1.253-3.21.054-1.019-.3-2.057-1.063-2.835-1.46-1.49-3.848-1.454-5.263.106" transform="translate(-21.000000, -33.000000) translate(21.000000, 33.000000)"/>
            </g>
        </g>
    </g>
</svg>
